Coordinates
version=1
nRows=4
nColumns=63
inDegrees=yes

Units are S.I. units (second, meters, Newtons, ...)
If the header above contains a line with 'inDegrees', this indicates whether rotational values are in degrees (yes) or radians (no).

endheader
time	pelvis_tilt	pelvis_list	pelvis_rotation	pelvis_tx	pelvis_ty	pelvis_tz	hip_flexion_r	hip_adduction_r	hip_rotation_r	knee_angle_r	knee_angle_r_beta	ankle_angle_r	subtalar_angle_r	mtp_angle_r	hip_flexion_l	hip_adduction_l	hip_rotation_l	knee_angle_l	knee_angle_l_beta	ankle_angle_l	subtalar_angle_l	mtp_angle_l	L5_S1_Flex_Ext	L5_S1_Lat_Bending	L5_S1_axial_rotation	L4_L5_Flex_Ext	L4_L5_Lat_Bending	L4_L5_axial_rotation	L3_L4_Flex_Ext	L3_L4_Lat_Bending	L3_L4_axial_rotation	L2_L3_Flex_Ext	L2_L3_Lat_Bending	L2_L3_axial_rotation	L1_L2_Flex_Ext	L1_L2_Lat_Bending	L1_L2_axial_rotation	L1_T12_Flex_Ext	L1_T12_Lat_Bending	L1_T12_axial_rotation	Abs_r3	Abs_r2	Abs_r1	Abs_t1	Abs_t2	neck_flexion	neck_bending	neck_rotation	arm_flex_r	arm_add_r	arm_rot_r	elbow_flex_r	pro_sup_r	wrist_flex_r	wrist_dev_r	arm_flex_l	arm_add_l	arm_rot_l	elbow_flex_l	pro_sup_l	wrist_flex_l	wrist_dev_l
      5.03389831	      2.36333057	     -1.36492672	     88.28546887	      0.15772289	      0.92601035	      0.42728902	     -9.85874178	      2.24984202	    -16.61474437	      7.66713767	      0.13381680	     30.37991443	      8.20240052	      0.00000000	    -11.49883210	     -3.29754439	      4.63342825	      0.45031871	      0.00785954	     29.39580979	     -3.24746262	      0.00000000	      0.09592304	      0.42578064	     -0.52854203	      0.17813867	      0.56628825	     -0.56157590	      0.15759196	      1.03524304	     -0.56157590	      0.10963044	      1.03524304	     -0.46247427	      0.08907413	      0.86825187	     -0.42944040	      0.05481042	      0.65953421	     -0.39640652	      0.68516865	      4.81651572	     -2.93959218	      0.00000000	      0.00000000	     27.58855346	      0.87344067	     -3.17497254	     11.49132137	    -12.87173404	    149.04873825	     14.94737768	      9.54530538	    -10.59585710	     -3.21701361	      0.01388553	    -11.24472796	     97.64019027	      5.86597545	     18.90911611	    -14.58001966	     -3.40540218
      5.05084746	      2.10193543	     -1.37452345	     88.34373010	      0.15764020	      0.92589953	      0.42759309	     -9.77473024	      1.98070529	    -16.26885509	      7.91863091	      0.13820618	     30.59177186	      7.84200782	      0.00000000	    -11.26506545	     -3.02835157	      4.26947032	      0.62165584	      0.01084994	     29.71028893	     -2.80247604	      0.00000000	      0.10624173	      0.39623952	     -0.54430440	      0.19730151	      0.52699856	     -0.57832343	      0.17454453	      0.96341677	     -0.57832343	      0.12142367	      0.96341677	     -0.47626635	      0.09865607	      0.80801163	     -0.44224733	      0.06070652	      0.61377502	     -0.40822830	      0.75887403	      4.48234073	     -3.02725780	      0.00000000	      0.00000000	     27.19630290	      0.98663708	     -2.87878080	     11.61575500	    -12.80531461	    148.44596278	     15.09696623	     10.51356043	    -10.85935281	     -2.95147880	      0.03861201	    -11.45670400	     97.17728419	      6.06703641	     19.79088754	    -14.67408620	     -2.80555078
      5.06779661	      1.84501665	     -1.23806672	     88.42032140	      0.15768312	      0.92593242	      0.42776821	    -10.06943559	      1.82389544	    -15.41420627	      7.64135532	      0.13336681	     30.42338506	      6.87521413	      0.00000000	    -11.35007088	     -2.79407267	      3.03012752	      0.40887058	      0.00713614	     30.15972447	     -0.87222366	      0.00000000	      0.08238669	      0.36276657	     -0.52748115	      0.15300032	      0.48247953	     -0.56044872	      0.13535309	      0.88203063	     -0.56044872	      0.09415974	      0.88203063	     -0.46154600	      0.07650428	      0.73975358	     -0.42857843	      0.04707575	      0.56192541	     -0.39561086	      0.58847986	      4.10368795	     -2.93369189	      0.00000000	      0.00000000	     27.49572472	      1.23967223	     -2.72779311	     11.31469267	    -13.15847662	    143.74103753	     15.23399587	     11.56064613	    -10.94816636	     -3.64725918	     -0.03338210	    -11.60885731	     94.27833272	      6.10628593	     21.30844151	    -14.55482140	     -3.08374897
      5.08474576	      1.43277481	     -1.09389755	     88.44916532	      0.15779912	      0.92599732	      0.42776037	    -10.24676923	      1.38323889	    -15.49124240	      7.74182407	      0.13512032	     30.56412972	      6.97712564	      0.00000000	    -11.37337136	     -2.36984609	      3.23542615	      0.38542819	      0.00672699	     30.20879465	     -1.08927089	      0.00000000	      0.07233995	      0.31392664	     -0.52429467	      0.13434253	      0.41752243	     -0.55706309	      0.11884731	      0.76328124	     -0.55706309	      0.08267733	      0.76328124	     -0.45875784	      0.06717488	      0.64015921	     -0.42598942	      0.04133505	      0.48627237	     -0.39322100	      0.51671706	      3.55120097	     -2.91596966	      0.00000000	      0.00000000	     27.37852553	      1.60330269	     -2.20886925	     11.21604134	    -13.07730988	    142.16025722	     15.23396722	     10.84137758	    -10.89483219	     -4.04525267	     -0.05790622	    -11.88759081	     93.55209264	      6.29880557	     21.33315583	    -14.47102351	     -2.80327406
